<?xml version="1.0" encoding="UTF-8" standalone="no"?><!DOCTYPE svg PUBLIC "-//W3C//DTD SVG 1.1//EN" "http://www.w3.org/Graphics/SVG/1.1/DTD/svg11.dtd"><svg width="100%" height="100%" viewBox="0 0 512 512" version="1.1" xmlns="http://www.w3.org/2000/svg" xmlns:xlink="http://www.w3.org/1999/xlink" xml:space="preserve" xmlns:serif="http://www.serif.com/" style="fill-rule:evenodd;clip-rule:evenodd;stroke-linejoin:round;stroke-miterlimit:1.41421;"><g><path id="svg_5" d="M186.179,202.678c-16.974,11.796 -26.685,27.388 -25.26,48.575c1.418,21.151 12.894,35.437 31.529,44.692c-0.762,2.14 -1.516,4.398 -2.366,6.629c-4.152,10.893 -9.722,21.033 -16.487,30.522c-3.119,4.362 -6.22,8.735 -9.835,12.711c-3.587,3.947 -7.524,7.45 -12.335,9.859c-4.242,2.134 -8.729,3.044 -13.463,2.878c-5.167,-0.187 -9.988,-1.669 -14.679,-3.717c-3.444,-1.502 -6.88,-3.045 -10.509,-4.069c-5.777,-1.635 -11.641,-1.949 -17.591,-1.278c-5.079,0.578 -9.855,2.175 -14.527,4.173c-3.594,1.531 -7.16,3.135 -10.972,4.089c-3.409,0.847 -6.853,1.329 -10.379,1.005c-3.996,-0.359 -7.617,-1.813 -10.997,-3.92c-4.601,-2.862 -8.449,-6.583 -11.937,-10.684c-15.357,-18.048 -26.193,-38.464 -32.053,-61.485c-1.633,-6.425 -2.873,-12.917 -3.596,-19.504c-0.822,-7.499 -0.987,-15.015 -0.262,-22.537c0.981,-10.165 3.465,-19.909 8.293,-28.973c6.837,-12.832 16.856,-22.227 30.34,-27.772c6.633,-2.725 13.569,-4.04 20.74,-3.988c4.859,0.031 9.556,1.057 14.111,2.669c4.508,1.591 8.941,3.397 13.435,5.029c2.237,0.81 4.514,1.525 6.809,2.144c3.313,0.898 6.577,0.378 9.732,-0.76c4.165,-1.5 8.295,-3.106 12.433,-4.678c4.147,-1.581 8.337,-2.983 12.668,-3.964c4.853,-1.097 9.745,-1.369 14.714,-1.005c7.632,0.561 14.93,2.333 21.835,5.65c8.28,3.993 15.063,9.759 20.331,17.311c0.114,0.153 0.214,0.311 0.278,0.398l0,0Z"/><path id="svg_6" d="M143.361,122.113c0.052,1.766 0.216,3.523 0.145,5.27c-0.561,14.554 -6.373,26.769 -16.681,36.871c-4.904,4.805 -10.682,8.311 -17.202,10.526c-4.259,1.448 -8.636,2.131 -13.142,1.9c-0.463,-0.02 -0.581,-0.187 -0.629,-0.623c-0.866,-8.012 0.858,-15.557 4.169,-22.772c6.801,-14.819 18.15,-24.489 33.562,-29.492c2.794,-0.905 5.669,-1.439 8.594,-1.674c0.353,-0.031 0.704,-0.006 1.184,-0.006Z"/><path id="tv" d="M286.051,136.012l0,49.794l45.052,0l0,23.998l-45.052,0l0,93.497c0,21.494 6.079,33.671 23.597,33.671c8.22,0 14.296,-1.076 18.233,-2.145l1.431,23.642c-6.076,2.507 -15.736,4.298 -27.89,4.298c-14.66,0 -26.459,-4.656 -33.967,-13.254c-8.939,-9.314 -12.154,-24.718 -12.154,-45.136l0,-94.575l-26.817,0l0,-23.998l26.817,0l0,-41.555l30.75,-8.237l0,0Zm95.814,49.794l33.96,97.436c5.721,15.763 10.366,30.09 13.95,44.42l1.067,0c3.939,-14.328 8.941,-28.657 14.662,-44.42l33.61,-97.436l32.886,0l-67.921,173.379l-30.038,0l-65.783,-173.379l33.607,0Z" style="fill-rule:nonzero;"/></g></svg>