<svg width="128" height="128" xmlns="http://www.w3.org/2000/svg">

 <g>
  <title>background</title>
  <rect fill="none" id="canvas_background" height="402" width="582" y="-1" x="-1"/>
 </g>
 <g>
  <title>Layer 1</title>
  <circle fill="#ff5e53" id="svg_1" r="64" cy="64" cx="64"/>
  <path fill="#ffffff" id="svg_2" d="m100.3,90.4l-26.4,-26.4l26.3,-26.4c0.4,-0.4 0.4,-1 0,-1.4l-8.5,-8.5c-0.4,-0.4 -1,-0.4 -1.4,0l-26.3,26.4l-26.3,-26.3c-0.4,-0.4 -1,-0.4 -1.4,0l-8.5,8.5c-0.4,0.4 -0.4,1 0,1.4l26.2,26.3l-26.3,26.3c-0.4,0.4 -0.4,1 0,1.4l8.5,8.5c0.4,0.4 1.1,0.4 1.4,0l26.4,-26.3l26.3,26.3c0.4,0.4 1.1,0.4 1.5,0.1l8.5,-8.5c0.4,-0.4 0.4,-1 0,-1.4z" class="st0"/>
 </g>
</svg>