<svg width="128" height="128" xmlns="http://www.w3.org/2000/svg">

 <g>
  <title>background</title>
  <rect fill="none" id="canvas_background" height="130" width="130" y="-1" x="-1"/>
 </g>
 <g>
  <title>Layer 1</title>
  <path fill="#ff8100" stroke="null" id="svg_1" d="m74.59766,34.856431l0,37.091814q0,1.159119 -0.745148,1.904267t-1.904267,0.745148l-26.494153,0q-1.159119,0 -1.904267,-0.745148t-0.745148,-1.904267l0,-5.298831q0,-1.159119 0.745148,-1.904267t1.904267,-0.745148l18.545907,0l0,-29.143568q0,-1.159119 0.745148,-1.904267t1.904267,-0.745148l5.298831,0q1.159119,0 1.904267,0.745148t0.745148,1.904267zm34.442399,29.143568q0,-12.253546 -6.043979,-22.602824t-16.393257,-16.393257t-22.602824,-6.043979t-22.602824,6.043979t-16.393257,16.393257t-6.043979,22.602824t6.043979,22.602824t16.393257,16.393257t22.602824,6.043979t22.602824,-6.043979t16.393257,-16.393257t6.043979,-22.602824zm18.545907,0q0,17.303994 -8.527805,31.917175t-23.140987,23.140987t-31.917175,8.527805t-31.917175,-8.527805t-23.140987,-23.140987t-8.527805,-31.917175t8.527805,-31.917175t23.140987,-23.140987t31.917175,-8.527805t31.917175,8.527805t23.140987,23.140987t8.527805,31.917175z"/>
 </g>
</svg>